<?xml version="1.0" standalone="no"?>
<!DOCTYPE svg PUBLIC "-//W3C//DTD SVG 20010904//EN"
 "http://www.w3.org/TR/2001/REC-SVG-20010904/DTD/svg10.dtd">
<svg version="1.0" xmlns="http://www.w3.org/2000/svg"
 width="227.000000pt" height="227.000000pt" viewBox="0 0 227.000000 227.000000"
 preserveAspectRatio="xMidYMid meet">
<metadata>
Created by potrace 1.14, written by Peter Selinger 2001-2017
</metadata>
<g transform="translate(0.000000,227.000000) scale(0.100000,-0.100000)"
fill="#000000" stroke="none">
<path d="M170 2110 c-99 -24 -145 -174 -74 -241 21 -20 39 -25 103 -29 l78 -5
-64 -160 c-180 -449 -196 -504 -174 -604 6 -29 63 -183 126 -342 63 -160 115
-292 115 -295 0 -2 -33 -4 -74 -4 -59 0 -78 -4 -99 -21 -52 -40 -60 -138 -15
-194 37 -47 73 -55 240 -55 179 0 219 12 259 76 48 79 48 82 -195 702 -42 106
-76 199 -76 206 0 8 57 159 126 337 161 414 164 423 164 479 0 52 -25 99 -73
134 -26 19 -44 21 -180 23 -84 1 -168 -2 -187 -7z"/>
<path d="M1759 2109 c-20 -6 -52 -26 -70 -45 -33 -34 -34 -38 -34 -112 0 -71
5 -89 64 -237 35 -88 100 -252 144 -364 l80 -204 -16 -41 c-9 -23 -49 -129
-90 -236 -41 -107 -100 -259 -131 -338 -64 -165 -73 -239 -36 -300 39 -64 66
-72 248 -72 133 0 171 3 199 17 47 22 73 66 73 125 0 92 -39 130 -138 136 -59
4 -64 6 -59 26 3 11 56 152 118 311 110 282 113 292 114 370 0 88 0 87 -164
498 -39 98 -71 183 -71 188 0 5 30 9 66 9 62 0 68 2 100 34 31 31 34 40 34 91
0 66 -18 104 -64 131 -26 16 -54 19 -181 21 -82 1 -166 -3 -186 -8z"/>
<path d="M1067 1919 c-65 -7 -135 -32 -190 -66 -40 -25 -117 -100 -117 -113 0
-5 -7 -15 -14 -23 -33 -32 -55 -128 -53 -227 2 -86 5 -102 36 -165 22 -44 55
-89 88 -121 29 -28 53 -54 53 -58 0 -4 -25 -31 -55 -61 -84 -82 -139 -219
-130 -321 3 -41 26 -138 34 -144 3 -3 15 -22 26 -43 21 -40 155 -171 155 -151
0 3 10 0 23 -8 60 -38 209 -55 314 -36 109 21 244 130 298 242 37 76 47 211
21 276 -9 22 -13 40 -10 40 3 0 -4 13 -15 29 -12 16 -21 32 -21 35 0 12 -111
126 -122 126 -16 0 -7 21 18 43 75 64 111 114 144 197 30 77 27 190 -8 280 -3
8 -6 17 -7 20 -5 21 -38 70 -46 70 -6 0 -8 4 -5 9 3 5 -1 12 -10 15 -9 4 -14
9 -11 12 3 4 -17 24 -44 46 -103 81 -218 113 -352 97z"/>
</g>
</svg>
